<?xml version="1.0" encoding="iso-8859-1"?>
<!-- Generator: Adobe Illustrator 28.4.1, SVG Export Plug-In . SVG Version: 6.00 Build 0)  -->
<svg version="1.1" id="Warstwa_1" xmlns="http://www.w3.org/2000/svg" xmlns:xlink="http://www.w3.org/1999/xlink" x="0px" y="0px"
	 viewBox="0 0 630.555 208.114" style="enable-background:new 0 0 630.555 208.114;" xml:space="preserve">
<path style="fill:#020203;" d="M600.825,45.151l0.805-2.134c4.397-11.659-1.511-24.722-13.169-29.119s-24.722,1.511-29.119,13.169
	l-0.805,2.134l-20.706,9.364c-2.536,1.147-4.475,3.215-5.46,5.826s-0.894,5.444,0.253,7.98c1.185,2.621,3.326,4.515,5.826,5.458
	c2.5,0.943,5.359,0.934,7.979-0.251l2.11-0.954c-1.726,8.581,1.707,17.355,8.597,22.52l-0.367,9.437
	c-0.059,1.496,0.846,2.861,2.246,3.389c1.4,0.528,2.981,0.101,3.925-1.061l5.956-7.329c8.583,0.671,16.955-3.651,21.327-11.233
	l0.954,2.11c1.185,2.621,3.326,4.515,5.826,5.458c2.5,0.943,5.359,0.934,7.979-0.251c2.536-1.147,4.475-3.215,5.46-5.826
	c0.984-2.609,0.894-5.444-0.253-7.98L600.825,45.151z M556.645,53.918l1.84-4.879l29.277,11.042l-1.84,4.879L556.645,53.918z
	 M590.216,53.575l-29.277-11.042l1.84-4.879l29.277,11.042L590.216,53.575z M586.006,20.404c8.071,3.044,12.161,12.089,9.117,20.16
	l-0.613,1.626l-29.277-11.042l0.613-1.626C568.891,21.45,577.936,17.36,586.006,20.404z M543.563,51.243
	c-1.749,0.79-3.814,0.01-4.606-1.737c-0.38-0.844-0.41-1.79-0.081-2.661c0.329-0.872,0.976-1.562,1.819-1.945l14.372-6.5
	l-3.475,9.212L543.563,51.243z M565.148,75.704c-6.358-2.398-10.228-8.521-10.104-14.958l27.569,10.398
	C578.456,76.06,571.506,78.102,565.148,75.704L565.148,75.704z M602.117,73.328c-1.749,0.79-3.814,0.01-4.606-1.737l-3.631-8.028
	l3.475-9.212l6.5,14.372c0.38,0.844,0.41,1.79,0.081,2.661C603.607,72.255,602.96,72.946,602.117,73.328z"/>
<g>
	<path d="M25.91,156.749c-0.757-0.881-1.012-2.017-0.757-3.407L39.728,85.39H25.532c-1.39,0-2.461-0.473-3.218-1.419
		c-0.757-0.946-0.947-2.05-0.568-3.312l3.218-16.278c0.251-1.26,0.946-2.366,2.082-3.313s2.396-1.419,3.786-1.419h14.196
		l1.325-5.679c2.774-12.744,8.074-21.924,15.9-27.541c7.823-5.613,18.233-8.423,31.231-8.423h15.332
		c1.387,0,2.428,0.473,3.123,1.419c0.692,0.946,0.914,2.053,0.663,3.312l-3.596,16.278c-0.254,1.39-0.947,2.526-2.083,3.407
		c-1.135,0.884-2.336,1.325-3.596,1.325h-10.6c-7.699,0-12.304,3.724-13.818,11.167l-1.136,4.732h37.1l7.76-36.91
		c0.251-1.387,0.947-2.523,2.083-3.407c1.135-0.881,2.333-1.325,3.596-1.325h23.282c1.387,0,2.428,0.473,3.123,1.419
		c0.692,0.946,0.914,2.053,0.663,3.312l-27.635,130.604c-0.254,1.391-0.946,2.526-2.082,3.407c-1.136,0.885-2.336,1.325-3.597,1.325
		H98.784c-1.39,0-2.431-0.474-3.123-1.42c-0.695-0.946-0.917-2.049-0.663-3.312l14.196-67.952H72.474l-14.575,67.952
		c-0.254,1.391-0.946,2.526-2.082,3.407c-1.136,0.885-2.336,1.325-3.597,1.325H29.128C27.738,158.074,26.668,157.634,25.91,156.749z
		"/>
	<path d="M137.774,193.187c-0.633-0.568-0.947-1.358-0.947-2.366c0-0.885,0.314-1.831,0.947-2.84l23.092-36.342l-18.36-86.502
		c-0.254-1.515,0.062-2.807,0.946-3.88c0.881-1.071,2.271-1.609,4.165-1.609h21.199c2.65,0,4.227,1.325,4.732,3.975l10.41,53.756
		l33.503-53.756c1.638-2.65,3.848-3.975,6.625-3.975h23.85c1.009,0,1.828,0.316,2.461,0.946c0.63,0.633,0.946,1.39,0.946,2.271
		c0,1.011-0.254,1.831-0.757,2.46l-80.255,124.737c-0.633,1.136-1.515,2.083-2.65,2.84c-1.136,0.757-2.461,1.136-3.975,1.136
		h-23.471C139.223,194.038,138.404,193.754,137.774,193.187z"/>
	<path d="M271.028,156.56c-4.797-2.271-8.394-5.3-10.79-9.085l-1.135,5.867c-0.254,1.391-0.947,2.526-2.083,3.407
		c-1.135,0.885-2.398,1.325-3.786,1.325h-22.524c-1.39,0-2.431-0.474-3.123-1.42c-0.692-0.946-0.914-2.049-0.663-3.312l26.5-124.926
		c0.251-1.387,0.946-2.522,2.082-3.407c1.136-0.881,2.396-1.325,3.786-1.325h24.417c1.387,0,2.428,0.473,3.123,1.42
		c0.692,0.946,0.914,2.052,0.663,3.312l-8.518,40.317c4.037-3.531,8.234-6.247,12.586-8.139c4.354-1.893,9.432-2.839,15.238-2.839
		c10.6,0,18.863,2.999,24.795,8.991c5.932,5.995,8.896,14.229,8.896,24.701c0,2.777-0.316,6.184-0.945,10.221
		c-1.137,5.933-2.148,10.665-3.029,14.196c-3.66,14.261-9.559,25.174-17.697,32.746c-8.139,7.571-18.332,11.356-30.569,11.356
		C281.563,159.967,275.822,158.831,271.028,156.56z M294.404,128.641c3.219-3.342,5.773-7.979,7.666-13.912
		c1.26-4.289,2.082-8.201,2.461-11.735c0.252-2.774,0.379-4.794,0.379-6.057c0-4.164-0.918-7.35-2.744-9.559
		c-1.832-2.207-4.955-3.312-9.371-3.312c-5.426,0-9.937,1.609-13.533,4.827c-3.596,3.218-6.027,7.287-7.287,12.208
		c-1.39,5.3-2.336,10.032-2.839,14.196c-0.378,1.893-0.568,3.724-0.568,5.489c0,8.583,4.289,12.871,12.871,12.871
		C286.862,133.657,291.187,131.986,294.404,128.641z"/>
	<path d="M344.752,150.977c-7.13-5.992-10.694-14.859-10.694-26.595c0-4.289,0.44-8.58,1.325-12.871l1.325-5.868
		c3.658-15.016,10.818-26.751,21.483-35.207c10.662-8.453,23.501-12.682,38.519-12.682c13.502,0,23.661,3.312,30.475,9.938
		c6.814,6.625,10.222,15.616,10.222,26.973c0,4.04-0.506,8.583-1.515,13.628l-0.946,4.732c-0.379,1.39-1.136,2.555-2.271,3.502
		c-1.136,0.946-2.398,1.419-3.785,1.419h-60.003l-0.189,1.136c-0.378,2.02-0.567,4.04-0.567,6.057c0,3.913,0.946,7.036,2.839,9.37
		c1.893,2.336,4.732,3.501,8.518,3.501c3.029,0,5.584-0.597,7.666-1.798c2.082-1.198,4.132-2.745,6.152-4.637
		c1.387-1.26,2.49-2.05,3.312-2.366c0.819-0.313,1.923-0.473,3.312-0.473h24.985c1.136,0,2.018,0.378,2.65,1.136
		c0.63,0.757,0.819,1.704,0.567,2.839c-0.884,3.407-3.661,7.258-8.328,11.546c-4.67,4.291-10.884,7.982-18.645,11.073
		c-7.761,3.09-16.438,4.637-26.026,4.637C362.006,159.967,351.88,156.971,344.752,150.977z M403.145,98.64l0.189-0.379
		c0.503-2.017,0.758-4.164,0.758-6.436c0-4.037-1.041-7.16-3.124-9.369c-2.082-2.207-5.016-3.312-8.801-3.312
		c-4.798,0-8.867,1.704-12.209,5.11c-3.345,3.407-5.649,8.077-6.909,14.007v0.379H403.145z"/>
	<path d="M438.444,150.977c-7.13-5.992-10.694-14.859-10.694-26.595c0-4.289,0.44-8.58,1.325-12.871l1.325-5.868
		c3.658-15.016,10.818-26.751,21.483-35.207c10.662-8.453,23.501-12.682,38.519-12.682c13.502,0,23.661,3.312,30.475,9.938
		c6.814,6.625,10.222,15.616,10.222,26.973c0,4.04-0.506,8.583-1.515,13.628l-0.946,4.732c-0.379,1.39-1.136,2.555-2.271,3.502
		c-1.136,0.946-2.398,1.419-3.785,1.419h-60.003l-0.189,1.136c-0.378,2.02-0.567,4.04-0.567,6.057c0,3.913,0.946,7.036,2.839,9.37
		c1.893,2.336,4.732,3.501,8.518,3.501c3.029,0,5.584-0.597,7.666-1.798c2.082-1.198,4.132-2.745,6.152-4.637
		c1.387-1.26,2.49-2.05,3.312-2.366c0.819-0.313,1.923-0.473,3.312-0.473h24.985c1.136,0,2.018,0.378,2.65,1.136
		c0.63,0.757,0.819,1.704,0.567,2.839c-0.884,3.407-3.661,7.258-8.328,11.546c-4.67,4.291-10.884,7.982-18.645,11.073
		c-7.761,3.09-16.438,4.637-26.026,4.637C455.699,159.967,445.572,156.971,438.444,150.977z M496.838,98.64l0.189-0.379
		c0.503-2.017,0.758-4.164,0.758-6.436c0-4.037-1.041-7.16-3.124-9.369c-2.082-2.207-5.016-3.312-8.801-3.312
		c-4.798,0-8.867,1.704-12.209,5.11c-3.345,3.407-5.649,8.077-6.909,14.007v0.379H496.838z"/>
</g>
</svg>
